<svg xmlns="http://www.w3.org/2000/svg" width="176" height="176" viewBox="0 0 176 176"><rect width="100%" height="100%" fill="#DDDDDD"/><path fill="#999999" d="M42.36 94.375h3.12v2.22h-9.6v-2.22h3.51v-10.12q0-.6.04-1.23l-2.5 2.09q-.21.16-.42.21-.21.04-.4 0-.18-.03-.33-.12-.14-.09-.21-.2l-.94-1.29 5.29-4.5h2.44v15.16Zm5.73-15.13h11.99v1.28q0 .58-.12.93-.12.36-.24.6l-6.57 13.53q-.21.42-.58.72-.37.29-1 .29h-2.14l6.7-13.26q.23-.41.45-.75.23-.34.5-.65h-8.3q-.28 0-.48-.21-.21-.2-.21-.48v-2Zm24.22 0-5.15 6.3-.6.74q.51-.25 1.09-.39.58-.14 1.25-.14.99 0 1.92.33.93.32 1.63.98.71.65 1.14 1.62.44.97.44 2.27 0 1.21-.45 2.27-.44 1.07-1.25 1.86-.8.79-1.93 1.25-1.14.45-2.51.45-1.39 0-2.49-.44-1.11-.45-1.89-1.24-.78-.8-1.19-1.92-.41-1.13-.41-2.49 0-1.23.49-2.52.5-1.29 1.55-2.68l4.14-5.56q.21-.28.63-.49.41-.2.95-.2h2.64Zm-4.48 15.12q.71 0 1.31-.24.59-.24 1.02-.67.42-.44.66-1.02.24-.58.24-1.26 0-.75-.23-1.34-.22-.6-.64-1.01-.42-.41-1.01-.63-.59-.22-1.3-.22-.71 0-1.28.24-.58.24-.99.67-.4.43-.63 1.01-.23.58-.23 1.25 0 .72.2 1.32.2.59.59 1.01.39.42.96.65.58.24 1.33.24Zm25.44-1.74-1.57 1.55-4.07-4.07-4.1 4.09-1.57-1.55 4.1-4.11-3.91-3.92 1.56-1.56 3.91 3.92 3.89-3.89 1.58 1.56-3.9 3.9 4.08 4.08Zm16.43 1.75h3.12v2.22h-9.6v-2.22h3.52v-10.12q0-.6.03-1.23l-2.49 2.09q-.22.16-.43.21-.21.04-.39 0-.19-.03-.33-.12-.15-.09-.22-.2l-.94-1.29 5.3-4.5h2.43v15.16Zm5.74-15.13h11.99v1.28q0 .58-.12.93-.12.36-.24.6l-6.58 13.53q-.2.42-.58.72-.37.29-.99.29h-2.15l6.71-13.26q.23-.41.45-.75t.5-.65h-8.31q-.27 0-.48-.21-.2-.2-.2-.48v-2Zm24.21 0-5.14 6.3-.6.74q.5-.25 1.08-.39.58-.14 1.26-.14.98 0 1.91.33.93.32 1.64.98.71.65 1.14 1.62.43.97.43 2.27 0 1.21-.44 2.27-.45 1.07-1.25 1.86-.81.79-1.94 1.25-1.13.45-2.5.45-1.39 0-2.5-.44-1.1-.45-1.88-1.24-.78-.8-1.2-1.92-.41-1.13-.41-2.49 0-1.23.5-2.52t1.54-2.68l4.14-5.56q.22-.28.63-.49.41-.2.95-.2h2.64Zm-4.47 15.12q.71 0 1.3-.24.59-.24 1.02-.67.43-.44.67-1.02.24-.58.24-1.26 0-.75-.23-1.34-.23-.6-.65-1.01-.42-.41-1.01-.63-.59-.22-1.29-.22-.71 0-1.29.24-.57.24-.98.67-.41.43-.64 1.01-.23.58-.23 1.25 0 .72.2 1.32.2.59.59 1.01.39.42.97.65.57.24 1.33.24Z"/></svg>